<?xml version="1.0" ?><svg viewBox="0 0 24 24" xmlns="http://www.w3.org/2000/svg"><defs><style>.cls-1{fill:none;}.cls-2{fill:#fb0;}.cls-3{fill:#fff;}</style></defs><title/><g data-name="Layer 2" id="Layer_2"><g data-name="Layer 3" id="Layer_3"><rect class="cls-1" height="24" width="24"/><path class="cls-2" d="M1,12C1,4,4,1,12,1S23,4,23,12,20,23,12,23,1,20,1,12"/><path class="cls-3" d="M12,4.68a5.16,5.16,0,0,0-2.52,9.66v4h1v1h3v-1h1v-4A5.16,5.16,0,0,0,12,4.68Zm.52,12.72H10.44V16.32h3.12V17.4Zm1.31-3.78-.27.13v1.61H10.44V13.75l-.27-.13a4.2,4.2,0,1,1,3.66,0Z"/></g></g></svg>