<?xml version="1.0" ?><svg id="Layer_1" style="enable-background:new 0 0 512 512;" version="1.1" viewBox="0 0 512 512" xml:space="preserve" xmlns="http://www.w3.org/2000/svg" xmlns:xlink="http://www.w3.org/1999/xlink"><path d="M512,150.582v210.836c0,37.639-30.515,68.154-68.154,68.154H68.154  C30.515,429.572,0,399.057,0,361.418V150.582c0-37.639,30.515-68.154,68.154-68.154h375.693C481.485,82.428,512,112.943,512,150.582  z" style="fill:#D32E2A;"/><path d="M68.154,403.712c-23.32,0-42.294-18.973-42.294-42.294V150.582c0-23.32,18.973-42.294,42.294-42.294  h375.693c23.32,0,42.294,18.973,42.294,42.294v210.836c0,23.32-18.973,42.294-42.294,42.294L68.154,403.712L68.154,403.712z" style="fill:#F14336;"/><polygon points="331.989,256.97 200.983,332.61 200.983,181.33 " style="fill:#F2F2F2;"/><g/><g/><g/><g/><g/><g/><g/><g/><g/><g/><g/><g/><g/><g/><g/></svg>